<svg xmlns="http://www.w3.org/2000/svg" width="21" height="20" viewBox="0 0 21 20" fill="none">
<path d="M4.36722 16.849C4.61473 16.0252 5.12119 15.3032 5.81146 14.79C6.50174 14.2768 7.33906 13.9997 8.19922 14H12.1992C13.0605 13.9997 13.8988 14.2774 14.5896 14.7918C15.2804 15.3062 15.7867 16.0298 16.0332 16.855M1.19922 10C1.19922 11.1819 1.43201 12.3522 1.8843 13.4442C2.3366 14.5361 2.99953 15.5282 3.83526 16.364C4.67098 17.1997 5.66314 17.8626 6.75507 18.3149C7.847 18.7672 9.01732 19 10.1992 19C11.3811 19 12.5514 18.7672 13.6434 18.3149C14.7353 17.8626 15.7275 17.1997 16.5632 16.364C17.3989 15.5282 18.0618 14.5361 18.5141 13.4442C18.9664 12.3522 19.1992 11.1819 19.1992 10C19.1992 8.8181 18.9664 7.64778 18.5141 6.55585C18.0618 5.46392 17.3989 4.47177 16.5632 3.63604C15.7275 2.80031 14.7353 2.13738 13.6434 1.68508C12.5514 1.23279 11.3811 1 10.1992 1C9.01732 1 7.847 1.23279 6.75507 1.68508C5.66314 2.13738 4.67098 2.80031 3.83526 3.63604C2.99953 4.47177 2.3366 5.46392 1.8843 6.55585C1.43201 7.64778 1.19922 8.8181 1.19922 10ZM7.19922 8C7.19922 8.79565 7.51529 9.55871 8.0779 10.1213C8.64051 10.6839 9.40357 11 10.1992 11C10.9949 11 11.7579 10.6839 12.3205 10.1213C12.8831 9.55871 13.1992 8.79565 13.1992 8C13.1992 7.20435 12.8831 6.44129 12.3205 5.87868C11.7579 5.31607 10.9949 5 10.1992 5C9.40357 5 8.64051 5.31607 8.0779 5.87868C7.51529 6.44129 7.19922 7.20435 7.19922 8Z" stroke="black" stroke-width="2" stroke-linecap="round" stroke-linejoin="round"/>
</svg>