<svg width="15" height="25" viewBox="0 0 15 25" fill="none" xmlns="http://www.w3.org/2000/svg">
<path d="M3.09277 24.1124C2.74423 24.1124 2.47602 23.9998 2.24316 23.7648L1.09863 22.6085L1.09766 22.6075C0.864344 22.3722 0.750031 22.0992 0.75 21.7413C0.75 21.4278 0.837281 21.1789 1.01562 20.964L1.09766 20.8741L8.52148 13.3829L9.04492 12.8546L8.52051 12.3263L1.10449 4.85852L1.10449 4.85755C0.863306 4.60774 0.749998 4.32673 0.749998 3.97571C0.750095 3.62468 0.863114 3.35368 1.09765 3.11731L1.09863 3.11633L2.24316 1.96106L2.24414 1.96008C2.47686 1.72531 2.74444 1.61248 3.09277 1.61243C3.39756 1.61243 3.64094 1.69872 3.85351 1.87805L3.94336 1.96106L13.9033 11.9962C14.1363 12.2319 14.25 12.505 14.25 12.8624C14.25 13.1758 14.1627 13.4247 13.9844 13.6398L13.9023 13.7296L3.94336 23.7638C3.70957 23.9994 3.44122 24.1124 3.09277 24.1124Z" stroke="white" stroke-width="1.5"/>
</svg>
