<svg xmlns="http://www.w3.org/2000/svg" width="19" height="18" viewBox="0 0 19 18" fill="none">
<path d="M12.1992 7.5C12.1992 8.29565 11.8831 9.05871 11.3205 9.62132C10.7579 10.1839 9.99487 10.5 9.19922 10.5C8.40357 10.5 7.64051 10.1839 7.0779 9.62132C6.51529 9.05871 6.19922 8.29565 6.19922 7.5" stroke="black" stroke-width="1.5" stroke-linecap="round" stroke-linejoin="round"/>
<path d="M2.52734 4.52539H15.8728" stroke="black" stroke-width="1.5" stroke-linecap="round" stroke-linejoin="round"/>
<path d="M2.74922 4.10025C2.55449 4.35989 2.44922 4.67569 2.44922 5.00025V15C2.44922 15.3978 2.60725 15.7794 2.88856 16.0607C3.16986 16.342 3.55139 16.5 3.94922 16.5H14.4492C14.847 16.5 15.2286 16.342 15.5099 16.0607C15.7912 15.7794 15.9492 15.3978 15.9492 15V5.00025C15.9492 4.67569 15.844 4.35989 15.6492 4.10025L14.1492 2.1C14.0095 1.91371 13.8283 1.7625 13.62 1.65836C13.4118 1.55422 13.1821 1.5 12.9492 1.5H5.44922C5.21635 1.5 4.98668 1.55422 4.7784 1.65836C4.57012 1.7625 4.38894 1.91371 4.24922 2.1L2.74922 4.10025Z" stroke="black" stroke-width="1.5" stroke-linecap="round" stroke-linejoin="round"/>
</svg>